<svg xmlns="http://www.w3.org/2000/svg" viewBox="0 0 279.13 55.03"><defs><style>.cls-1{fill:#009ada;}.cls-2{fill:#2261ae;}</style></defs><g id="Layer_2" data-name="Layer 2"><g id="Layer_1-2" data-name="Layer 1"><path class="cls-1" d="M32.26,54.74a27.42,27.42,0,0,0,4,.29A27,27,0,0,0,57,45.25c-2.67,1.32-14.59,7-24.45,9.42Z"/><path class="cls-1" d="M32.25.29l1,.29c10,2.62,22,8.65,24.18,9.77A26.92,26.92,0,0,0,36.21,0,27.56,27.56,0,0,0,32.25.29Z"/><path class="cls-2" d="M14.23,16.5a26.93,26.93,0,0,0-.17,21.57Z"/><path class="cls-1" d="M60.18,12.87a27.62,27.62,0,0,1-.34,29.75c2.72-1.53,7.4-4.64,8-9.56l.15-1.2A44.48,44.48,0,0,0,68,23.54l-.11-1.06C67.4,17.51,62.85,14.4,60.18,12.87Z"/><path class="cls-2" d="M38.71,3.6A27.44,27.44,0,0,1,52.45,27.48,27.71,27.71,0,0,1,38.23,51.61a161,161,0,0,0,18.89-7.9s.29-.13.71-.36a26.87,26.87,0,0,0,.39-31.2c-.51-.28-.84-.42-.84-.42A160.52,160.52,0,0,0,38.71,3.6Z"/><path class="cls-2" d="M27.73.84c-4.3,0-7.6,1.13-9.81,3.37A10.55,10.55,0,0,0,15,11.13l0,2.74A27.44,27.44,0,0,1,31.42,1.16,23.66,23.66,0,0,0,27.9.84Z"/><path class="cls-2" d="M27.63,54.2a25,25,0,0,0,3.52-.31A27.46,27.46,0,0,1,14.72,41.31l0,2.71a10.4,10.4,0,0,0,2.91,6.85c2.21,2.21,5.51,3.33,9.81,3.33Z"/><path class="cls-1" d="M0,27.5A27,27,0,0,0,18.48,53.08,11.13,11.13,0,0,1,13.38,44l0-4.25A27.24,27.24,0,0,1,10.57,27.5a27.68,27.68,0,0,1,3-12.6l0-4a11.12,11.12,0,0,1,3.12-7.41,10.49,10.49,0,0,1,2.17-1.68A27,27,0,0,0,0,27.5Z"/><path class="cls-2" d="M85.3,39.73a2.17,2.17,0,0,0-2.22-1.66c-1.1,0-1.76.52-1.78,1.47,0,2.09,5.36,1.56,5.36,4.62,0,1.38-.78,2.79-3.21,2.79a3.51,3.51,0,0,1-3.4-2.48l1-.34a2.62,2.62,0,0,0,2.5,1.93c1.39,0,2.09-.74,2.09-1.72,0-2.42-5.35-1.71-5.35-4.72a2.59,2.59,0,0,1,2.86-2.45,3.12,3.12,0,0,1,3.14,2.35Z"/><path class="cls-2" d="M92.1,46.82V37.3h1.06v8.62h4.5v.9Z"/><path class="cls-2" d="M108.37,37.3v.9h-4.65v3.19H107v.9h-3.3v3.63h4.91v.9h-6V37.3Z"/><path class="cls-2" d="M119.65,37.3v.9H115v3.19h3.31v.9H115v3.63h4.92v.9h-6V37.3Z"/><path class="cls-2" d="M125.13,46.82V37.3h3.32c2,0,2.91,1.16,2.91,2.67s-1.09,2.61-3.49,2.61h-1.69v4.24Zm1.05-5.14H128c1.76,0,2.34-.61,2.34-1.74s-.68-1.74-2.1-1.74h-2Z"/><path class="cls-2" d="M146.53,38.2v8.62h-1.05V38.2h-2.85v-.9h6.75v.9Z"/><path class="cls-2" d="M160,37.3v.9h-4.65v3.19h3.31v.9h-3.31v3.63h4.92v.9h-6V37.3Z"/><path class="cls-2" d="M171.73,44c-.42,1.77-1.4,3-3.35,3-2.14,0-3.64-1.55-3.64-4.89,0-3.1,1.35-4.89,3.64-4.89,1.77,0,2.79,1,3.22,2.77l-1,.29c-.34-1.35-1-2.16-2.37-2.16s-2.45,1.26-2.45,4,1.08,4,2.66,4,2-1.11,2.32-2.27Z"/><path class="cls-2" d="M183.57,37.3v9.52h-1.06V42.29H178v4.53h-1V37.3h1v4.09h4.56V37.3Z"/><path class="cls-2" d="M189.64,46.82V37.3h1.52l4.15,7.33h.06V37.3h.94v9.52h-.87l-4.82-8.49h0v8.49Z"/><path class="cls-2" d="M205.36,37.17c2.33,0,3.72,1.71,3.72,4.89S207.69,47,205.36,47s-3.72-1.71-3.72-4.89S203,37.17,205.36,37.17Zm0,8.89c1.67,0,2.66-1.3,2.66-4s-1-4-2.66-4-2.66,1.29-2.66,4S203.68,46.06,205.36,46.06Z"/><path class="cls-2" d="M214.42,46.82V37.3h1.05v8.62H220v.9Z"/><path class="cls-2" d="M227.94,37.17c2.34,0,3.72,1.71,3.72,4.89S230.28,47,227.94,47s-3.72-1.71-3.72-4.89S225.61,37.17,227.94,37.17Zm0,8.89c1.68,0,2.66-1.3,2.66-4s-1-4-2.66-4-2.66,1.29-2.66,4S226.27,46.06,227.94,46.06Z"/><path class="cls-2" d="M243.31,42.25v4.57h-.87V46h0a3,3,0,0,1-2.49,1c-2.17,0-3.72-1.55-3.72-4.89s1.55-4.89,3.72-4.89a3.33,3.33,0,0,1,3.42,2.8l-1,.19c-.47-1.51-1.26-2.09-2.37-2.09-1.4,0-2.72,1-2.72,4s1.32,4,2.72,4A2,2,0,0,0,242.26,44v-.81h-2.15v-.89Z"/><path class="cls-2" d="M250.31,37.3v9.52h-1.05V37.3Z"/><path class="cls-2" d="M262.35,37.3v.9H257.7v3.19H261v.9H257.7v3.63h4.91v.9h-6V37.3Z"/><path class="cls-2" d="M272.41,39.73a2.17,2.17,0,0,0-2.22-1.66c-1.1,0-1.76.52-1.78,1.47,0,2.09,5.36,1.56,5.36,4.62,0,1.38-.78,2.79-3.21,2.79a3.51,3.51,0,0,1-3.4-2.48l1-.34a2.62,2.62,0,0,0,2.5,1.93c1.39,0,2.09-.74,2.09-1.72,0-2.42-5.35-1.71-5.35-4.72a2.59,2.59,0,0,1,2.86-2.45,3.12,3.12,0,0,1,3.14,2.35Z"/><path class="cls-2" d="M111.3,22.87H106v7.63h-2.63V13.72h9.93c4.32,0,6.3,1.47,6.3,4.29,0,2.37-.85,4.37-5.28,4.79l5.14,7.63h-3Zm-5.29-7v4.75h7.48c1.61,0,3.47-.26,3.47-2.35s-1.76-2.4-3.47-2.4Z"/><polygon class="cls-2" points="211 30.44 208.44 30.44 208.44 18.49 202.11 29.02 199.58 29.02 193.35 18.57 193.35 30.44 190.82 30.44 190.82 13.56 193.35 13.56 200.9 26.16 208.44 13.56 211 13.56 211 30.44"/><path class="cls-2" d="M83.82,30.6H81.21V9.89H92.45c4.81,0,7.15,2.07,7.15,5.54,0,3.28-2,5.75-6,5.75H83.82Zm0-18.53v6.87h8.85c2,0,4.29-.87,4.29-3.45s-2.17-3.42-4.29-3.42Z"/><path class="cls-2" d="M122.31,22.21c0-2.66,1-8.83,9.91-8.83s9.91,6.17,9.91,8.83c0,1.42-.48,8.55-9.91,8.55S122.31,23.63,122.31,22.21ZM125,22c0,5.91,5.05,6.54,7.22,6.54s7.22-.63,7.22-6.54c0-4-2.7-6.41-7.22-6.41S125,18,125,22Z"/><path class="cls-2" d="M167.16,22.21c0-2.66,1-8.83,9.91-8.83S187,19.55,187,22.21c0,1.42-.48,8.55-9.91,8.55S167.16,23.63,167.16,22.21Zm2.69-.2c0,5.91,5.05,6.54,7.22,6.54s7.22-.63,7.22-6.54c0-4-2.7-6.41-7.22-6.41S169.85,18,169.85,22Z"/><path class="cls-2" d="M147.54,25.4a10.85,10.85,0,0,0,7.75,3.18c4.07,0,6.86-.94,6.79-3.84,0-1.67-2.62-2.87-5.6-3.38l-4-.69c-4.14-.67-7.07-2.32-7.07-5.3,0-5,4.73-5.92,8.25-5.92,7.72,0,10,3.41,10.65,5l-2.93,0c-1.57-1.91-4.35-2.69-7.84-2.69-3.77,0-5.56,1.48-5.56,3.39,0,2.56,2.2,2.68,5.23,3.24l4.12.75c4.21.75,7.35,2.61,7.35,5.62,0,5.6-6.52,6.08-8.92,6.08-7.12,0-10.55-3.75-11.19-5.4Z"/><path class="cls-2" d="M260.07,26.44c.9,1.12,2.55,2.17,6,2.17,3.12,0,5.31-1.11,5.31-2.7,0-1.31-1.35-2.14-4-2.47l-4.08-.56c-3.77-.52-5.85-2.12-5.85-4.52,0-4.16,4.77-4.78,7.61-4.78,6.57,0,8.08,2.75,8.59,4l-3,0c-1-1.28-2.84-1.9-5.65-1.9-3.05,0-4.86.92-4.86,2.47,0,1.24,1.19,1.89,4.11,2.25l4,.61c3.89.6,5.79,2.1,5.79,4.59,0,4.53-5.05,5.2-8.06,5.2-6.64,0-8.54-3-9.06-4.35Z"/><path class="cls-2" d="M233.88,13.75V30.39h-2.37L219,16.91V30.39H216.4V13.75h2.85c.19.22,12.07,13,12.07,13v-13Z"/><path class="cls-2" d="M254.45,13.81v9.48c0,4.95-2.73,7.47-8.12,7.47s-8.11-2.52-8.11-7.47V13.81h2.47v9.24c0,2.36.59,5.5,5.64,5.5s5.64-3.14,5.64-5.5V13.81Z"/><path class="cls-2" d="M275.13,16.3a2,2,0,1,1,2,2A2,2,0,0,1,275.13,16.3Zm3.68,0A1.68,1.68,0,1,0,277.13,18,1.62,1.62,0,0,0,278.81,16.3Zm-2.13,1.13h-.3V15.14h1c.6,0,.8.23.8.64s-.31.6-.71.64l.68,1h-.33l-.64-1h-.49Zm.4-1.28c.32,0,.77.05.77-.38s-.27-.36-.54-.36h-.63v.74Z"/></g></g></svg>